<?xml version="1.0" encoding="utf-8"?>
<!-- Generator: Adobe Illustrator 21.1.0, SVG Export Plug-In . SVG Version: 6.00 Build 0)  -->
<svg version="1.1" id="Layer_1" xmlns="http://www.w3.org/2000/svg" xmlns:xlink="http://www.w3.org/1999/xlink" x="0px" y="0px"
	 viewBox="0 0 583 182.2" style="enable-background:new 0 0 583 182.2;" xml:space="preserve">
<style type="text/css">
	.st0{fill:#F0907B;}
	.st1{fill:#FFFFFF;}
	.st2{fill:#B3B4B5;}
</style>
<title>amberLogo</title>
<rect x="202.6" class="st0" width="180.6" height="180.6"/>
<path class="st1" d="M244.7,39.2h1.5l3.8,8.9l3.8-8.9h1.5l-4.8,11.2h-1L244.7,39.2z"/>
<path class="st1" d="M292.9,39.5h1.5v11.2h-1.5V39.5z"/>
<path class="st1" d="M332.1,49.5l0.3-1.4c0.9,1,2.1,1.5,3.4,1.5c1.1,0.1,2.2-0.7,2.3-1.8c0-0.1,0-0.1,0-0.2c0-1.1-0.6-1.8-2.6-2.3
	s-3.1-1.7-3.1-3.3s1.3-2.9,3.6-2.9c1.1,0,2.1,0.4,3,1l-0.3,1.2c-0.8-0.6-1.7-0.9-2.7-1c-1.4,0-2.2,0.6-2.2,1.7
	c0,0.8,0.5,1.5,2.3,1.9c2.4,0.6,3.5,1.7,3.5,3.5c0,2.2-1.8,3.3-3.8,3.3C334.4,50.9,333.1,50.4,332.1,49.5z"/>
<path class="st1" d="M245.1,87.2v-6h1.5v6c0,2.9,1.3,4.2,3.4,4.2s3.4-1.3,3.4-4.2v-6h1.5v6c0,3.8-2,5.5-4.9,5.5
	S245.1,91.1,245.1,87.2z"/>
<path class="st1" d="M293.2,82.5h1l4.8,11.2h-1.5l-1.4-3.1h-4.9l-1.3,3.1h-1.5L293.2,82.5z M295.6,89.3l-2-4.6l-2,4.6H295.6z"/>
<path class="st1" d="M332.5,82.5h1.5v10h5.3v1.2h-6.8V82.5z"/>
<path class="st1" d="M249.2,123h1.5v11.2h-1.5V123z"/>
<path class="st1" d="M289.8,133.3l5.9-9.1h-5.9V123h7.7v0.9l-5.9,9.1h5.9v1.2h-7.7V133.3z"/>
<path class="st1" d="M332.5,125.7h6.8v1.2H334v3.4h4.4v1.2H334v4h5.3v1.2h-6.8V125.7z"/>
<g>
	<rect x="0" y="0" width="180.7" height="180.6"/>
	<path class="st1" d="M42.4,45.2c-0.1-3.3,2.5-6,5.8-6.1c0.1,0,0.3,0,0.4,0c1.4,0,2.8,0.4,4,1.2V42c-1.1-1-2.5-1.5-4-1.5
		c-2.6,0.1-4.7,2.4-4.5,5c0.1,2.5,2.1,4.4,4.5,4.5c1.5,0,2.9-0.5,4-1.5V50c-1.2,0.8-2.6,1.2-4,1.2c-3.3,0.2-6-2.4-6.2-5.6
		C42.4,45.5,42.4,45.3,42.4,45.2z"/>
	<path class="st1" d="M86.7,39.4h3.8c2.7,0,3.8,1.5,3.8,3.4c0.1,1.5-0.9,2.9-2.4,3.2l3.5,5h-1.8l-3.3-4.8h-2.1V51h-1.5V39.4z
		 M90.6,44.9c1.2,0.1,2.2-0.7,2.3-1.9c0.1-1.2-0.7-2.2-1.9-2.3c-0.1,0-0.3,0-0.4,0h-2.3v4.2H90.6z"/>
	<path class="st1" d="M87.6,82.4h7v1.3h-5.5v3.5h4.5v1.3h-4.5v4.2h5.5V94h-7V82.4z"/>
	<path class="st1" d="M132.2,82.4h1l5,11.6h-1.6l-1.4-3.2h-5.1l-1.4,3.3h-1.5L132.2,82.4z M134.7,89.5l-2-4.8l-2,4.8H134.7z"/>
	<path class="st1" d="M48.6,124.2h-4.1v-1.3h9.8v1.3h-4.1v10.3h-1.5L48.6,124.2z"/>
	<path class="st1" d="M87.6,122.9h7v1.3h-5.5v3.5h4.5v1.3h-4.5v4.2h5.5v1.3h-7V122.9z"/>
</g>
<g>
	<rect x="402.4" y="-0.2" class="st2" width="180.6" height="180.6"/>
	<path class="st1" d="M444.2,41h7.1v1.3h-5.6v3.6h4.6v1.3h-4.6v4.2h5.6v1.3h-7.1V41z"/>
	<path class="st1" d="M532.2,41h7.1v1.3h-5.6v3.6h4.6v1.3h-4.6v4.2h5.6v1.3h-7.1V41z"/>
	<path class="st1" d="M491.8,46.8l-4.2-5.8h1.8l3.4,4.6l3.4-4.6h1.8l-4.2,5.8l4.5,6h-1.8l-3.6-4.9l-3.6,4.9h-1.8L491.8,46.8z"/>
	<path class="st1" d="M442.6,88.5c-0.1-3.3,2.5-6.1,5.8-6.2c0.1,0,0.3,0,0.4,0c1.5,0,2.9,0.4,4.1,1.2v1.7c-1.1-1-2.6-1.6-4.1-1.5
		c-2.7,0.2-4.7,2.5-4.5,5.2c0.2,2.4,2.1,4.4,4.5,4.5c1.5,0,3-0.5,4.1-1.6v1.6c-1.2,0.8-2.6,1.3-4.1,1.2c-3.3,0.2-6.1-2.4-6.3-5.7
		C442.6,88.9,442.6,88.7,442.6,88.5z"/>
	<path class="st1" d="M487.6,88.8v-6.4h1.6v6.4c0,3,1.4,4.4,3.5,4.4s3.5-1.3,3.5-4.4v-6.4h1.5v6.4c0,4-2.1,5.8-5.1,5.8
		C489.6,94.6,487.6,92.8,487.6,88.8z"/>
	<path class="st1" d="M491.9,128.7h-4.2v-1.3h10v1.3h-4.3v10.5h-1.6L491.9,128.7z"/>
	<path class="st1" d="M532.2,127.4h7.1v1.3h-5.6v3.6h4.6v1.3h-4.6v4.2h5.6v1.3h-7.1V127.4z"/>
</g>
</svg>
