<svg xmlns="http://www.w3.org/2000/svg" viewBox="0 0 434.23 23.58"><defs><style>.a{fill:#231f20;}</style></defs><title>amberLogotext</title><path class="a" d="M88.89,279.1c0-4.8,3.31-8.68,7.85-8.68a7.69,7.69,0,0,1,6.47,3.43l.11-3h2.51v16.45h-2.51l-.11-3a7.69,7.69,0,0,1-6.47,3.43C92.2,287.78,88.89,283.9,88.89,279.1Zm14.24,0c0-4-2.55-6.36-5.67-6.36s-5.67,2.4-5.67,6.36,2.55,6.36,5.67,6.36S103.13,283.06,103.13,279.1Z" transform="translate(-88.89 -264.2)"/><path class="a" d="M133.41,270.87h2.51l.19,3.16a7.3,7.3,0,0,1,6.06-3.62c3.08,0,4.57,1.49,5.22,3.77,1.79-2.51,4-3.77,6.28-3.77,4.38,0,5.56,3,5.56,7.12v9.79h-2.89v-9.56c0-3.62-1.1-4.87-3.5-4.87s-5.07,2.06-5.07,4.72v9.71h-2.89v-9.56c0-3.62-1.1-4.87-3.5-4.87s-5.07,2.06-5.07,4.72v9.71h-2.89Z" transform="translate(-88.89 -264.2)"/><path class="a" d="M189.41,284.35l-.11,3h-2.51V264.47h2.89v9a7.67,7.67,0,0,1,6.21-3c4.53,0,7.85,3.88,7.85,8.68s-3.31,8.68-7.85,8.68A7.69,7.69,0,0,1,189.41,284.35Zm11.43-5.26c0-4-2.55-6.36-5.67-6.36s-5.67,2.4-5.67,6.36,2.55,6.36,5.67,6.36S200.83,283.06,200.83,279.1Z" transform="translate(-88.89 -264.2)"/><path class="a" d="M229.44,279c0-5.29,3.92-8.57,8-8.57s7,2.67,7,6.4a10.41,10.41,0,0,1-.23,1.87H232.3c-.23,2.89,1.14,6.74,6.4,6.74a8.55,8.55,0,0,0,5.41-2.13v2.55a10.55,10.55,0,0,1-6.4,1.94C232.87,287.78,229.44,284.09,229.44,279Zm12.19-2.32c.34-2.21-1.41-4-4.11-4a4.73,4.73,0,0,0-5,4Z" transform="translate(-88.89 -264.2)"/><path class="a" d="M271.26,270.87h2.51L274,274a7.4,7.4,0,0,1,6.4-3.62v3.12c-3.12-.57-6.21,1.22-6.21,4v9.79h-2.89Z" transform="translate(-88.89 -264.2)"/><path class="a" d="M337.12,272.85h-3.35v-2h3.35v0c0-4.8,1.83-6.63,5.29-6.63a7.45,7.45,0,0,1,2.06.34v2.06a10.06,10.06,0,0,0-1.75-.23c-2,0-2.7.91-2.7,4.27v.23h4.46v2H340v14.47h-2.89Z" transform="translate(-88.89 -264.2)"/><path class="a" d="M369.54,280.66v-9.79h2.89v9.52c0,3.69,1.45,4.91,3.85,4.91s5.41-2.06,5.41-4.72v-9.71h2.89v16.45h-2.51l-.19-3.16a7.74,7.74,0,0,1-6.4,3.62C371.1,287.78,369.54,284.73,369.54,280.66Z" transform="translate(-88.89 -264.2)"/><path class="a" d="M412.16,264.47h2.89v22.85h-2.89Z" transform="translate(-88.89 -264.2)"/><path class="a" d="M442.63,264.47h2.89v22.85h-2.89Z" transform="translate(-88.89 -264.2)"/><path class="a" d="M472.19,279c0-5.29,3.92-8.57,8-8.57s7,2.67,7,6.4a10.41,10.41,0,0,1-.23,1.87H475c-.23,2.89,1.14,6.74,6.4,6.74a8.55,8.55,0,0,0,5.41-2.13v2.55a10.55,10.55,0,0,1-6.4,1.94C475.62,287.78,472.19,284.09,472.19,279Zm12.19-2.32c.34-2.21-1.41-4-4.11-4a4.73,4.73,0,0,0-5,4Z" transform="translate(-88.89 -264.2)"/><path class="a" d="M514,270.87h2.51l.19,3.16a7.4,7.4,0,0,1,6.4-3.62v3.12c-3.12-.57-6.21,1.22-6.21,4v9.79H514Z" transform="translate(-88.89 -264.2)"/></svg>