<?xml version="1.0" encoding="utf-8"?>
<!-- Generator: Adobe Illustrator 24.2.0, SVG Export Plug-In . SVG Version: 6.00 Build 0)  -->
<svg version="1.1" id="Layer_1" xmlns="http://www.w3.org/2000/svg" xmlns:xlink="http://www.w3.org/1999/xlink" x="0px" y="0px"
	 viewBox="0 0 166.92 189.47" style="enable-background:new 0 0 166.92 189.47;" xml:space="preserve">
<style type="text/css">
	.st0{fill:#FFFFFF;}
	.st1{font-family:'MrEavesXLModOT-Reg';}
	.st2{font-size:12px;}
	.st3{letter-spacing:5;}
</style>
<rect x="7.31" y="9.05" width="150.65" height="150.65"/>
<g>
	<g>
		<path class="st0" d="M38.49,61.44c0,1.63,0.05,2.83,0.22,4.1H32.7c0.16-1.28,0.22-2.39,0.22-4.1v-13.7h-3.21
			c-1.71,0-2.17,0.03-4.1,0.19v-5.19c0.9,0.11,2.39,0.19,4.05,0.19h11.9c1.9,0,2.99-0.05,4.24-0.19v5.19
			c-1.22-0.14-2.28-0.19-4.24-0.19h-3.07V61.44z"/>
		<path class="st0" d="M68.31,42.93c-0.16,1.11-0.22,2.12-0.22,4.02v14.57c0,1.77,0.05,2.69,0.22,4.02h-5.84
			c0.16-1.14,0.22-2.15,0.22-4.02v-5.27h-9.16v5.27c0,1.77,0.05,2.8,0.22,4.02H47.9c0.16-1.11,0.22-2.12,0.22-4.02V46.95
			c0-1.88-0.05-2.85-0.22-4.02h5.84c-0.16,1.28-0.22,2.34-0.22,4.02v4.51h9.16v-4.51c0-1.88-0.05-2.96-0.22-4.02H68.31z"/>
		<path class="st0" d="M88.76,65.73c-1.17-0.13-2.15-0.19-4.48-0.19h-8.56c-2.07,0-2.83,0.03-4,0.08c0.16-1.09,0.22-2.09,0.22-3.97
			V46.82c0-1.69-0.05-2.64-0.22-3.97c1.11,0.05,1.88,0.08,4,0.08h8.67c1.85,0,2.77-0.05,4.05-0.19v5.08
			c-1.25-0.14-2.23-0.19-4.05-0.19h-7.07v3.99h5.87c1.79,0,2.45-0.03,4.08-0.19v5.03c-1.28-0.14-2.2-0.19-4.08-0.19h-5.87v4.56h7.01
			c2.07,0,3.26-0.05,4.43-0.19V65.73z"/>
	</g>
	<g>
		<path class="st0" d="M25.85,76.79c0-1.85-0.05-2.74-0.24-3.99c1.09,0.05,1.77,0.08,4.02,0.08h5.68c3.34,0,6.03,0.92,7.85,2.69
			c1.98,1.96,2.99,4.81,2.99,8.43c0,3.72-1.09,6.71-3.15,8.78c-1.82,1.79-4.4,2.72-7.64,2.72h-5.73c-2.09,0-2.85,0.03-4,0.08
			c0.16-1.2,0.22-2.09,0.22-3.97V76.79z M34.87,90.73c1.77,0,3.02-0.46,3.99-1.44c1.11-1.14,1.71-2.96,1.71-5.22
			c0-2.31-0.52-4-1.58-5.05c-0.95-0.95-2.25-1.39-4.21-1.39h-3.56v13.1H34.87z"/>
		<path class="st0" d="M70.13,84.07c0,7.17-4.38,11.93-10.98,11.93c-6.66,0-10.95-4.65-10.95-11.85c0-7.17,4.29-11.77,10.98-11.77
			S70.13,76.95,70.13,84.07z M64.48,84.12c0-4.4-2.01-7.07-5.3-7.07c-3.32,0-5.35,2.69-5.35,7.07c0,4.43,2.04,7.17,5.35,7.17
			C62.47,91.3,64.48,88.58,64.48,84.12z"/>
		<path class="st0" d="M85.85,83.99c0.79,1.17,1.3,2.04,1.96,3.23c-0.11-1.25-0.16-2.5-0.16-4.02V77c0-1.79-0.05-2.88-0.22-4.13
			h5.79C93.05,74.1,93,75.24,93,77v14.43c0,1.66,0.08,2.91,0.22,4.05h-5.95c-0.49-1.03-1.11-2.04-2.04-3.45l-5.03-7.58
			c-0.73-1.09-1.2-1.9-1.96-3.34c0.14,1.22,0.19,2.72,0.19,4.05v6.09c0,1.87,0.05,3.07,0.22,4.24h-5.79
			c0.16-1.06,0.22-2.25,0.22-4.27V76.92c0-1.58-0.05-2.8-0.22-4.05h5.9c0.27,0.73,0.87,1.82,1.93,3.4L85.85,83.99z"/>
		<path class="st0" d="M117.41,72.87c-0.16,1.17-0.22,2.15-0.22,4.1v9.35c0,6.2-3.72,9.7-10.27,9.7c-3.37,0-6.11-0.95-7.74-2.66
			c-1.58-1.69-2.39-4.05-2.39-7.09v-9.29c0-1.87-0.05-3.07-0.22-4.1h5.87c-0.16,1.01-0.22,2.09-0.22,4.1v9.35
			c0,3.42,1.55,5.05,4.73,5.05c3.26,0,4.81-1.63,4.81-5.05v-9.35c0-2.04-0.05-2.88-0.22-4.1H117.41z"/>
		<path class="st0" d="M132.35,91.38c0,1.63,0.05,2.83,0.22,4.1h-6.01c0.16-1.28,0.22-2.39,0.22-4.1v-13.7h-3.21
			c-1.71,0-2.17,0.03-4.1,0.19v-5.19c0.9,0.11,2.39,0.19,4.05,0.19h11.9c1.9,0,2.99-0.05,4.24-0.19v5.19
			c-1.22-0.14-2.28-0.19-4.24-0.19h-3.07V91.38z"/>
	</g>
	<g>
		<path class="st0" d="M31.26,118.13c0.11,0.98,0.3,1.47,0.71,2.01c0.65,0.82,1.79,1.28,3.18,1.28c2.09,0,3.34-0.92,3.34-2.45
			c0-0.84-0.43-1.58-1.14-1.9c-0.57-0.27-1.25-0.46-4.08-1.11c-2.5-0.54-3.37-0.87-4.37-1.58c-1.71-1.19-2.64-3.02-2.64-5.22
			c0-4.18,3.37-6.82,8.72-6.82c3.45,0,6.09,1.06,7.55,3.1c0.68,0.9,1.01,1.71,1.36,3.26l-5.76,0.63c-0.33-1.77-1.3-2.5-3.37-2.5
			c-1.66,0-2.88,0.9-2.88,2.15c0,0.76,0.41,1.33,1.28,1.74c0.54,0.24,0.54,0.24,3.75,0.9c2.07,0.43,3.37,0.9,4.4,1.55
			c1.96,1.22,2.94,3.04,2.94,5.54c0,2.04-0.65,3.78-1.9,5c-1.58,1.52-3.97,2.31-7.15,2.31c-2.31,0-4.59-0.49-6.06-1.33
			c-1.36-0.76-2.36-1.93-2.94-3.48c-0.27-0.65-0.41-1.28-0.6-2.53L31.26,118.13z"/>
		<path class="st0" d="M67.47,102.89c-0.16,1.11-0.22,2.12-0.22,4.02v14.57c0,1.77,0.05,2.69,0.22,4.02h-5.84
			c0.16-1.14,0.22-2.15,0.22-4.02v-5.27h-9.16v5.27c0,1.77,0.05,2.8,0.22,4.02h-5.84c0.16-1.11,0.22-2.12,0.22-4.02v-14.57
			c0-1.88-0.05-2.85-0.22-4.02h5.84c-0.16,1.28-0.22,2.34-0.22,4.02v4.51h9.16v-4.51c0-1.88-0.05-2.96-0.22-4.02H67.47z"/>
		<path class="st0" d="M92.13,114.08c0,7.17-4.38,11.93-10.98,11.93c-6.66,0-10.95-4.65-10.95-11.85c0-7.17,4.29-11.77,10.98-11.77
			S92.13,106.96,92.13,114.08z M86.47,114.14c0-4.4-2.01-7.07-5.3-7.07c-3.32,0-5.35,2.69-5.35,7.07c0,4.43,2.04,7.17,5.35,7.17
			C84.46,121.31,86.47,118.59,86.47,114.14z"/>
		<path class="st0" d="M94.86,125.5c0.16-1.19,0.22-2.42,0.22-4.02v-14.7c0-1.47-0.05-2.69-0.22-3.97c1.28,0.05,2.26,0.08,4,0.08
			h5.95c5.38,0,8.34,2.58,8.34,7.31c0,4.84-3.1,7.72-8.37,7.72h-4.29v3.48c0,1.6,0.08,2.94,0.22,4.1H94.86z M104.53,113.29
			c1.9,0,3.02-1.06,3.02-2.94s-1.06-2.85-3.02-2.85h-4.05v5.79H104.53z"/>
	</g>
</g>
<text transform="matrix(1 0 0 1 5.9137 180.2402)" class="st1 st2 st3">by amber fuller</text>
</svg>
